# xmcd
#
# Track frame offsets:
#	150
#	19280
#	34435
#	46095
#	58129
#	71048
#	87173
#	100484
#	110173
#	131480
#	136678
#	141831
#	152403
#	169537
#	185523
#	201781
#	216756
#	230696
#	254032
#	267114
#	283105
#	298178
#	313874
#	330594
#
# Disc length: 4627 seconds
#
# Revision: 2
# Processed by: cddbd v1.5.2PL0 Copyright (c) Steve Scherf et al.
# Submitted via: audiograbber 1.83.01
#
DISCID=77121118
DTITLE=Jonny Hill - 20 Jahre Teddybär - CD 2
DYEAR=2007
DGENRE=Country
TTITLE0=Kinder Alte Hunde Und Junger
TTITLE1=Laß Moch Sein Wie Ich Bin
TTITLE2=Lichter Auf Den Huegeln
TTITLE3=Mehr Hinterm Lenkrad Als Zu H
TTITLE4=Mein bester Freund
TTITLE5=Nimm Mich Mit In Dein Leben
TTITLE6=Nur Allzugern
TTITLE7=Papa, ich bin Teddybär...für A
TTITLE8=Papillon
TTITLE9=Prolog 1
TTITLE10=Prolog 2
TTITLE11=Rauch In Den Haaren
TTITLE12=Rosen für Mama
TTITLE13=So Schön Ist Kanada
TTITLE14=Solang' Dein Traum Dich Trägt
TTITLE15=Steh Auf Und Leb Dein Leben
TTITLE16=Suchst Du Gold
TTITLE17=Tommy und Strolch
TTITLE18=Und Überhaubt, Mein Bester Fre
TTITLE19=Und Wieder Zeigt Dir Einer Ei
TTITLE20=Vielleicht Bist Du Auch So Al
TTITLE21=Was Zum Teufel Ist Schon Liebe
TTITLE22=Wenn Dich Jemand Vermisst
TTITLE23=Wieviel Wert Sind 20 Jahre
EXTD=
EXTT0=
EXTT1=
EXTT2=
EXTT3=
EXTT4=
EXTT5=
EXTT6=
EXTT7=
EXTT8=
EXTT9=
EXTT10=
EXTT11=
EXTT12=
EXTT13=
EXTT14=
EXTT15=
EXTT16=
EXTT17=
EXTT18=
EXTT19=
EXTT20=
EXTT21=
EXTT22=
EXTT23=
PLAYORDER=
